HIERARCHY
ROOT newVegas:Hips
{
	OFFSET 0.000000 96.479958 0.000000
	CHANNELS 6 Xposition Yposition Zposition Xrotation Yrotation Zrotation
	JOINT newVegas:Pelvis
	{
		OFFSET 0.000000 0.000000 0.000000
		CHANNELS 3 Xrotation Yrotation Zrotation
		JOINT newVegas:LeftUpLeg
		{
			OFFSET 18.735201 -5.666702 -4.541200
			CHANNELS 3 Xrotation Yrotation Zrotation
			JOINT newVegas:LeftLeg
			{
				OFFSET -0.021200 -31.938179 0.493100
				CHANNELS 3 Xrotation Yrotation Zrotation
				JOINT newVegas:LeftFoot
				{
					OFFSET 0.021200 -31.938179 -4.336299
					CHANNELS 3 Xrotation Yrotation Zrotation
					JOINT newVegas:LeftToeBase
					{
						OFFSET 0.943001 -26.722000 15.023500
						CHANNELS 3 Xrotation Yrotation Zrotation
						End Site
						{
							OFFSET 0.000000 30.670183 0.000000
						}
					}
				}
				JOINT newVegas:Left_PantLeg
				{
					OFFSET 0.663870 -9.044666 -1.108900
					CHANNELS 3 Xrotation Yrotation Zrotation
					End Site
					{
						OFFSET 1.415995 20.635357 0.000000
					}
				}
			}
		}
		JOINT newVegas:RightUpLeg
		{
			OFFSET -18.735201 -5.666702 -4.541200
			CHANNELS 3 Xrotation Yrotation Zrotation
			JOINT newVegas:RightLeg
			{
				OFFSET 0.018946 -31.938133 0.493100
				CHANNELS 3 Xrotation Yrotation Zrotation
				JOINT newVegas:RightFoot
				{
					OFFSET -0.018946 -31.938126 -4.336299
					CHANNELS 3 Xrotation Yrotation Zrotation
					JOINT newVegas:RightToeBase
					{
						OFFSET -0.943001 -26.722004 15.023500
						CHANNELS 3 Xrotation Yrotation Zrotation
						End Site
						{
							OFFSET 0.000000 30.670187 0.000000
						}
					}
				}
				JOINT newVegas:Right_PantLeg
				{
					OFFSET -0.661674 -9.044716 -1.108900
					CHANNELS 3 Xrotation Yrotation Zrotation
					End Site
					{
						OFFSET -1.415958 20.635269 0.000000
					}
				}
			}
		}
	}
	JOINT newVegas:Spine
	{
		OFFSET 0.000000 10.199997 -0.299500
		CHANNELS 3 Xrotation Yrotation Zrotation
		JOINT newVegas:Spine1
		{
			OFFSET 0.000000 11.900002 -1.516600
			CHANNELS 3 Xrotation Yrotation Zrotation
			JOINT newVegas:Spine2
			{
				OFFSET 0.000000 13.600006 -2.842500
				CHANNELS 3 Xrotation Yrotation Zrotation
				JOINT newVegas:Neck
				{
					OFFSET 0.000000 9.624100 -2.890100
					CHANNELS 3 Xrotation Yrotation Zrotation
					JOINT newVegas:Head
					{
						OFFSET 0.000000 14.068802 -1.351900
						CHANNELS 3 Xrotation Yrotation Zrotation
						JOINT newVegas:Hair_Back
						{
							OFFSET 0.000000 3.231903 -17.524799
							CHANNELS 3 Xrotation Yrotation Zrotation
							End Site
							{
								OFFSET 0.000000 19.849884 0.000000
							}
						}
						JOINT newVegas:Hair_Front
						{
							OFFSET 0.000000 31.260406 4.573800
							CHANNELS 3 Xrotation Yrotation Zrotation
							JOINT newVegas:Hair_Front1
							{
								OFFSET 0.000000 2.284103 11.993300
								CHANNELS 3 Xrotation Yrotation Zrotation
								JOINT newVegas:Hair_Front2
								{
									OFFSET 0.000000 2.284103 11.993300
									CHANNELS 3 Xrotation Yrotation Zrotation
									End Site
									{
										OFFSET 0.000000 12.208862 0.000000
									}
								}
							}
						}
						JOINT newVegas:Jowel
						{
							OFFSET 0.000000 -7.458206 6.864100
							CHANNELS 3 Xrotation Yrotation Zrotation
							End Site
							{
								OFFSET 0.000000 19.849884 0.000000
							}
						}
					}
				}
				JOINT newVegas:LeftShoulder
				{
					OFFSET 15.263000 10.923401 -0.547700
					CHANNELS 3 Xrotation Yrotation Zrotation
					JOINT newVegas:LeftArm
					{
						OFFSET 25.438599 -2.830597 -13.032500
						CHANNELS 3 Xrotation Yrotation Zrotation
						JOINT newVegas:LeftForeArm
						{
							OFFSET 29.960503 0.000000 0.000000
							CHANNELS 3 Xrotation Yrotation Zrotation
							JOINT newVegas:LeftHand
							{
								OFFSET 27.849251 0.000000 0.000000
								CHANNELS 3 Xrotation Yrotation Zrotation
								JOINT newVegas:LeftHandThumb1
								{
									OFFSET 4.487587 -3.305161 6.305391
									CHANNELS 3 Xrotation Yrotation Zrotation
									JOINT newVegas:LeftHandThumb2
									{
										OFFSET 5.480453 -3.164139 3.164143
										CHANNELS 3 Xrotation Yrotation Zrotation
										JOINT newVegas:LeftHandThumb3
										{
											OFFSET 5.159721 -2.978973 2.978967
											CHANNELS 3 Xrotation Yrotation Zrotation
											End Site
											{
												OFFSET 2.494507 5.926697 1.738678
											}
										}
									}
								}
								JOINT newVegas:LeftHandIndex1
								{
									OFFSET 18.578728 -0.527832 5.208049
									CHANNELS 3 Xrotation Yrotation Zrotation
									JOINT newVegas:LeftHandIndex2
									{
										OFFSET 3.192009 0.000000 0.000000
										CHANNELS 3 Xrotation Yrotation Zrotation
										JOINT newVegas:LeftHandIndex3
										{
											OFFSET 3.835129 0.000000 0.000000
											CHANNELS 3 Xrotation Yrotation Zrotation
											End Site
											{
												OFFSET -0.034599 3.816971 0.371180
											}
										}
									}
								}
								JOINT newVegas:LeftHandMiddle1
								{
									OFFSET 18.476105 0.000000 0.000000
									CHANNELS 3 Xrotation Yrotation Zrotation
									JOINT newVegas:LeftHandMiddle2
									{
										OFFSET 3.324875 0.000000 0.000000
										CHANNELS 3 Xrotation Yrotation Zrotation
										JOINT newVegas:LeftHandMiddle3
										{
											OFFSET 4.596550 0.000000 0.000000
											CHANNELS 3 Xrotation Yrotation Zrotation
											End Site
											{
												OFFSET 0.057701 4.578827 0.399218
											}
										}
									}
								}
								JOINT newVegas:LeftHandRing1
								{
									OFFSET 17.732719 0.121887 -4.201567
									CHANNELS 3 Xrotation Yrotation Zrotation
									JOINT newVegas:LeftHandRing2
									{
										OFFSET 2.733170 0.000000 0.000000
										CHANNELS 3 Xrotation Yrotation Zrotation
										JOINT newVegas:LeftHandRing3
										{
											OFFSET 3.178268 0.000000 0.000000
											CHANNELS 3 Xrotation Yrotation Zrotation
											End Site
											{
												OFFSET 0.119102 3.170624 0.185394
											}
										}
									}
								}
								JOINT newVegas:LeftHandPinky1
								{
									OFFSET 15.989624 -0.606689 -7.535461
									CHANNELS 3 Xrotation Yrotation Zrotation
									JOINT newVegas:LeftHandPinky2
									{
										OFFSET 2.538986 0.000000 0.000000
										CHANNELS 3 Xrotation Yrotation Zrotation
										JOINT newVegas:LeftHandPinky3
										{
											OFFSET 2.593102 0.000000 0.000000
											CHANNELS 3 Xrotation Yrotation Zrotation
											End Site
											{
												OFFSET -0.150902 2.584198 0.152708
											}
										}
									}
								}
							}
							JOINT newVegas:Left_Sleeve
							{
								OFFSET 0.267448 -0.649796 0.577675
								CHANNELS 3 Xrotation Yrotation Zrotation
								End Site
								{
									OFFSET 0.000000 15.991241 0.000000
								}
							}
							JOINT newVegas:Left_CapeC
							{
								OFFSET 15.715958 -8.608795 -6.935905
								CHANNELS 3 Xrotation Yrotation Zrotation
								JOINT newVegas:Left_CapeC1
								{
									OFFSET 0.000000 -8.688499 0.000000
									CHANNELS 3 Xrotation Yrotation Zrotation
									End Site
									{
										OFFSET 0.000000 8.688499 0.000000
									}
								}
							}
						}
						JOINT newVegas:Left_CapeB
						{
							OFFSET 26.118385 -8.608795 -7.079235
							CHANNELS 3 Xrotation Yrotation Zrotation
							JOINT newVegas:Left_CapeB1
							{
								OFFSET 0.000000 -8.688499 0.000000
								CHANNELS 3 Xrotation Yrotation Zrotation
								End Site
								{
									OFFSET 0.000000 8.688499 0.000000
								}
							}
						}
						JOINT newVegas:Left_CapeA
						{
							OFFSET 5.115639 -8.608795 -10.395809
							CHANNELS 3 Xrotation Yrotation Zrotation
							JOINT newVegas:Left_CapeA1
							{
								OFFSET 0.000000 -8.688499 0.000000
								CHANNELS 3 Xrotation Yrotation Zrotation
								End Site
								{
									OFFSET 0.000000 8.688499 0.000000
								}
							}
						}
					}
				}
				JOINT newVegas:RightShoulder
				{
					OFFSET -15.263000 10.923401 -0.547700
					CHANNELS 3 Xrotation Yrotation Zrotation
					JOINT newVegas:RightArm
					{
						OFFSET -25.438599 -2.830597 -13.032500
						CHANNELS 3 Xrotation Yrotation Zrotation
						JOINT newVegas:RightForeArm
						{
							OFFSET -29.960503 0.000000 0.000000
							CHANNELS 3 Xrotation Yrotation Zrotation
							JOINT newVegas:RightHand
							{
								OFFSET -27.849251 0.000000 0.000000
								CHANNELS 3 Xrotation Yrotation Zrotation
								JOINT newVegas:RightHandThumb1
								{
									OFFSET -4.487587 -3.305161 6.305391
									CHANNELS 3 Xrotation Yrotation Zrotation
									JOINT newVegas:RightHandThumb2
									{
										OFFSET -5.480453 -3.164139 3.164143
										CHANNELS 3 Xrotation Yrotation Zrotation
										JOINT newVegas:RightHandThumb3
										{
											OFFSET -5.159721 -2.978973 2.978967
											CHANNELS 3 Xrotation Yrotation Zrotation
											End Site
											{
												OFFSET -2.494507 5.926697 1.738678
											}
										}
									}
								}
								JOINT newVegas:RightHandIndex1
								{
									OFFSET -18.578728 -0.527832 5.208049
									CHANNELS 3 Xrotation Yrotation Zrotation
									JOINT newVegas:RightHandIndex2
									{
										OFFSET -3.192009 0.000000 0.000000
										CHANNELS 3 Xrotation Yrotation Zrotation
										JOINT newVegas:RightHandIndex3
										{
											OFFSET -3.835129 0.000000 0.000000
											CHANNELS 3 Xrotation Yrotation Zrotation
											End Site
											{
												OFFSET 0.034599 3.816971 0.371180
											}
										}
									}
								}
								JOINT newVegas:RightHandMiddle1
								{
									OFFSET -18.476105 0.000000 0.000000
									CHANNELS 3 Xrotation Yrotation Zrotation
									JOINT newVegas:RightHandMiddle2
									{
										OFFSET -3.324875 0.000000 0.000000
										CHANNELS 3 Xrotation Yrotation Zrotation
										JOINT newVegas:RightHandMiddle3
										{
											OFFSET -4.596550 0.000000 0.000000
											CHANNELS 3 Xrotation Yrotation Zrotation
											End Site
											{
												OFFSET -0.057701 4.578827 0.399218
											}
										}
									}
								}
								JOINT newVegas:RightHandRing1
								{
									OFFSET -17.732719 0.121887 -4.201567
									CHANNELS 3 Xrotation Yrotation Zrotation
									JOINT newVegas:RightHandRing2
									{
										OFFSET -2.733170 0.000000 0.000000
										CHANNELS 3 Xrotation Yrotation Zrotation
										JOINT newVegas:RightHandRing3
										{
											OFFSET -3.178268 0.000000 0.000000
											CHANNELS 3 Xrotation Yrotation Zrotation
											End Site
											{
												OFFSET -0.119102 3.170624 0.185394
											}
										}
									}
								}
								JOINT newVegas:RightHandPinky1
								{
									OFFSET -15.989624 -0.606689 -7.535461
									CHANNELS 3 Xrotation Yrotation Zrotation
									JOINT newVegas:RightHandPinky2
									{
										OFFSET -2.538986 0.000000 0.000000
										CHANNELS 3 Xrotation Yrotation Zrotation
										JOINT newVegas:RightHandPinky3
										{
											OFFSET -2.593102 0.000000 0.000000
											CHANNELS 3 Xrotation Yrotation Zrotation
											End Site
											{
												OFFSET 0.150902 2.584198 0.152708
											}
										}
									}
								}
							}
							JOINT newVegas:Right_CapeC
							{
								OFFSET -15.715958 -8.608795 -6.935905
								CHANNELS 3 Xrotation Yrotation Zrotation
								JOINT newVegas:Right_CapeC1
								{
									OFFSET 0.000000 -8.688499 0.000000
									CHANNELS 3 Xrotation Yrotation Zrotation
									End Site
									{
										OFFSET 0.000000 8.688499 0.000000
									}
								}
							}
							JOINT newVegas:Right_Sleeve
							{
								OFFSET -0.267448 -0.649994 0.577675
								CHANNELS 3 Xrotation Yrotation Zrotation
								End Site
								{
									OFFSET 0.000000 15.991302 0.000000
								}
							}
						}
						JOINT newVegas:Right_CapeA
						{
							OFFSET -5.115540 -8.608795 -10.395824
							CHANNELS 3 Xrotation Yrotation Zrotation
							JOINT newVegas:Right_CapeA1
							{
								OFFSET 0.000000 -8.688499 0.000000
								CHANNELS 3 Xrotation Yrotation Zrotation
								End Site
								{
									OFFSET 0.000000 8.688499 0.000000
								}
							}
						}
						JOINT newVegas:Right_CapeB
						{
							OFFSET -26.118187 -8.608795 -7.079266
							CHANNELS 3 Xrotation Yrotation Zrotation
							JOINT newVegas:Right_CapeB1
							{
								OFFSET 0.000000 -8.688499 0.000000
								CHANNELS 3 Xrotation Yrotation Zrotation
								End Site
								{
									OFFSET 0.000000 8.688499 0.000000
								}
							}
						}
					}
				}
				JOINT newVegas:Left_Collar
				{
					OFFSET 18.625099 8.655502 8.828100
					CHANNELS 3 Xrotation Yrotation Zrotation
					JOINT newVegas:Left_Collar1
					{
						OFFSET 14.783401 10.540405 -1.259500
						CHANNELS 3 Xrotation Yrotation Zrotation
						End Site
						{
							OFFSET 0.000000 18.199875 0.000000
						}
					}
				}
				JOINT newVegas:Collar_Back
				{
					OFFSET 0.000000 15.630707 -20.132601
					CHANNELS 3 Xrotation Yrotation Zrotation
					End Site
					{
						OFFSET 0.000000 22.523010 0.000000
					}
				}
				JOINT newVegas:Left_Peck
				{
					OFFSET 17.239599 -5.132599 25.482599
					CHANNELS 3 Xrotation Yrotation Zrotation
					End Site
					{
						OFFSET 0.000000 22.523010 0.000000
					}
				}
				JOINT newVegas:Right_Peck
				{
					OFFSET -17.239599 -5.132202 25.482599
					CHANNELS 3 Xrotation Yrotation Zrotation
					End Site
					{
						OFFSET 0.000000 22.523010 0.000000
					}
				}
				JOINT newVegas:Right_Collar
				{
					OFFSET -18.625099 8.655792 8.828100
					CHANNELS 3 Xrotation Yrotation Zrotation
					JOINT newVegas:Right_Collar1
					{
						OFFSET -14.783401 10.539993 -1.259500
						CHANNELS 3 Xrotation Yrotation Zrotation
						End Site
						{
							OFFSET 0.000000 18.199631 0.000000
						}
					}
				}
			}
		}
		JOINT newVegas:Belly
		{
			OFFSET 0.000000 -6.540398 9.014299
			CHANNELS 3 Xrotation Yrotation Zrotation
			End Site
			{
				OFFSET 0.000000 11.566666 0.000000
			}
		}
	}
	JOINT newVegas:ElvisFacialAnim_Joint
	{
		OFFSET 1.000000 -95.330101 -8.825800
		CHANNELS 3 Xrotation Yrotation Zrotation
		End Site
		{
			OFFSET 0.000000 35.315800 0.000000
		}
	}
}
MOTION
Frames: 4
Frame Time: 0.016667
-3.526504 78.410408 3.057371 11.660455 -49.374420 11.268415 -0.000001 0.000004 -0.000000 -69.006829 20.606781 47.788102 51.256383 -22.124368 3.397159 2.960991 1.488315 -15.125358 -0.000000 -0.000000 -0.000000 0.000000 0.000002 -0.000001 -33.116022 3.850961 -30.939814 58.819089 4.953746 -6.674910 -30.773182 -6.442911 30.151877 -0.000000 0.000002 0.000000 0.000001 -0.000001 0.000000 10.972540 2.720460 -2.032865 6.100700 5.566541 -4.284684 -5.786917 6.328140 -3.046182 0.458698 1.873392 -0.022567 0.458703 1.873403 -0.022568 0.000001 0.000000 -0.000000 0.458626 1.873373 -0.022563 0.458777 1.873439 -0.022580 -0.000000 -0.000001 0.000001 0.000001 0.000000 -0.000000 -1.875343 -16.181772 -2.870480 -10.644672 2.164772 -45.510595 -22.862392 -25.786283 -15.871761 2.491047 -2.511845 6.860516 18.457977 -9.513803 13.216593 -1.150212 11.255336 -8.400846 0.000003 -0.000002 0.000003 -1.232796 -5.771931 -0.192347 0.133941 -0.197656 -4.602133 -0.000002 0.000001 -0.000003 1.884738 4.663363 -4.597431 0.476689 -1.009847 -12.986412 -0.000001 -0.000002 0.000002 3.024614 7.938943 -14.103488 -0.708002 -0.566230 -18.895725 0.000001 0.000001 0.000002 2.010386 6.305963 -22.386538 -0.815392 -0.210782 -16.746485 -0.000003 -0.000003 -0.000002 -0.000001 -0.000003 0.000000 -0.000001 -0.000003 0.000000 -0.000002 -0.000002 0.000000 0.000002 0.000000 -0.000001 0.000002 -0.000001 -0.000003 0.000002 0.000000 -0.000001 0.000001 0.000000 -0.000001 -5.074616 24.343749 1.482674 6.642360 -34.733745 57.610433 -21.032026 44.833806 19.961709 -0.087183 35.608501 7.474235 55.149529 18.649563 -29.698291 -0.442558 -14.180554 7.313157 0.000001 0.000001 -0.000000 5.673412 7.585010 36.844141 1.050477 3.824534 68.900244 -0.000002 -0.000001 -0.000001 -0.125710 1.886089 45.000770 -1.168999 3.204708 68.417650 -0.000001 0.000001 -0.000001 -5.311995 1.216655 58.508773 -0.745229 1.667564 48.011305 -0.000003 -0.000001 0.000001 -7.756822 -9.376450 47.263994 -0.526030 1.541602 45.600535 0.000004 -0.000002 0.000001 0.000002 -0.000000 -0.000002 0.000004 0.000002 -0.000001 0.000002 -0.000001 -0.000001 -0.000001 -0.000001 -0.000003 -0.000000 -0.000001 -0.000000 -0.000001 -0.000001 -0.000003 0.000000 -0.000001 -0.000000 0.000001 -0.000001 0.000001 0.000001 -0.000001 0.000001 0.000001 -0.000001 0.000001 0.000001 -0.000001 0.000001 0.000001 -0.000001 0.000001 0.000001 -0.000001 0.000001 0.000001 -0.000001 0.000001 0.000001 0.000003 -0.000001 -0.000001 0.000004 -0.000000 
-3.558670 78.429230 3.107050 11.184676 -51.001610 10.912970 -0.000000 0.000002 -0.000000 -67.437497 20.224409 48.582756 51.909294 -22.329785 3.457531 1.520549 1.967684 -16.007482 -0.000000 0.000002 -0.000000 0.000000 -0.000001 -0.000000 -33.601727 4.374805 -30.754624 58.821575 5.784538 -6.664847 -30.330876 -5.652757 29.869664 -0.000000 0.000002 0.000000 0.000000 0.000002 0.000002 10.990961 2.738148 -2.027900 6.138154 5.594447 -4.285142 -5.748710 6.468378 -2.981396 0.493173 1.868019 -0.017820 0.493135 1.868025 -0.017797 -0.000001 0.000002 -0.000000 0.492962 1.867985 -0.017767 0.493296 1.867880 -0.017756 -0.000001 0.000001 0.000000 -0.000001 0.000002 -0.000000 -1.831975 -15.691458 -2.734873 -10.284160 1.988963 -45.432830 -22.867637 -26.152772 -16.049787 2.735581 -2.483697 6.839576 18.499212 -9.524851 13.108590 -1.077103 11.351618 -8.411986 -0.000000 -0.000003 -0.000001 -1.131496 -5.650994 -0.728766 0.094702 -0.195217 -5.161578 0.000002 0.000000 -0.000001 1.871901 4.626704 -5.322341 0.428611 -1.020181 -13.711998 -0.000001 -0.000001 0.000003 2.961948 7.871814 -14.814786 -0.750693 -0.567339 -19.622495 0.000001 0.000001 0.000003 1.926219 6.257270 -23.049054 -0.855961 -0.211701 -17.424844 0.000003 0.000000 0.000001 -0.000000 0.000001 0.000001 -0.000000 0.000001 0.000001 -0.000001 0.000001 0.000001 -0.000001 0.000001 0.000001 -0.000001 -0.000000 -0.000003 -0.000001 0.000001 0.000001 -0.000002 0.000001 0.000001 -5.284791 25.012604 1.987640 5.891138 -33.544169 56.610387 -21.351970 45.089849 20.683983 2.377842 34.175982 4.612022 55.149536 18.649563 -29.698287 -0.442561 -14.180555 7.313158 0.000002 -0.000007 -0.000001 5.673412 7.585011 36.844144 1.050476 3.824531 68.900244 -0.000002 -0.000001 -0.000002 -0.125713 1.886092 45.000770 -1.168999 3.204706 68.417650 0.000001 0.000000 -0.000000 -5.311994 1.216653 58.508766 -0.745228 1.667570 48.011305 0.000001 -0.000001 -0.000000 -7.756823 -9.376453 47.263994 -0.526030 1.541595 45.600542 -0.000001 0.000003 -0.000003 0.000002 -0.000001 -0.000002 -0.000001 0.000001 -0.000001 0.000002 -0.000001 -0.000001 0.000002 0.000000 -0.000001 0.000002 0.000000 -0.000000 0.000002 0.000000 -0.000001 0.000002 0.000000 0.000002 0.000002 0.000001 0.000000 0.000002 0.000001 0.000000 0.000002 0.000001 0.000000 0.000002 0.000001 0.000000 0.000002 0.000001 0.000000 0.000002 0.000001 0.000000 0.000002 0.000001 0.000000 0.000002 -0.000003 0.000001 -0.000000 0.000002 -0.000000 
-3.686884 78.543221 3.072244 10.644291 -52.548303 10.553819 -0.000000 0.000001 -0.000000 -65.818312 19.574100 48.412753 53.804043 -21.532561 3.701282 -0.464152 3.035865 -15.118929 0.000000 -0.000000 -0.000000 0.000000 0.000001 0.000002 -33.754044 5.099538 -30.236899 58.734839 6.204279 -6.757334 -29.944553 -5.132468 29.676052 -0.000000 -0.000003 0.000000 0.000002 0.000003 -0.000000 11.043300 2.746623 -2.022758 6.244011 5.671779 -4.285783 -5.640074 6.608157 -2.917740 0.524694 1.852678 -0.008452 0.524602 1.852687 -0.008395 0.000002 -0.000000 0.000001 0.524752 1.852773 -0.008423 0.524583 1.852412 -0.008354 0.000000 0.000000 -0.000000 0.000002 -0.000000 0.000000 -1.772854 -15.071260 -2.573300 -9.648136 1.878000 -45.209278 -22.751852 -26.556761 -16.251522 3.425986 -2.405848 6.778296 18.614356 -9.555891 12.806407 -0.869304 11.618007 -8.438105 0.000002 -0.000002 -0.000003 -0.835805 -5.325765 -2.231409 -0.013377 -0.184473 -6.726228 0.000002 -0.000002 -0.000000 1.834810 4.529833 -7.349817 0.295698 -1.043534 -15.741525 -0.000002 -0.000001 -0.000002 2.782701 7.699085 -16.805747 -0.868377 -0.565355 -21.655180 -0.000001 0.000003 0.000002 1.688314 6.136102 -24.903445 -0.967988 -0.209448 -19.322195 0.000001 0.000002 0.000003 -0.000001 0.000003 -0.000001 -0.000001 0.000003 -0.000001 -0.000002 0.000003 -0.000001 -0.000002 -0.000002 -0.000003 -0.000001 -0.000002 -0.000005 -0.000002 -0.000002 -0.000003 -0.000002 -0.000002 -0.000002 -5.414784 24.900588 2.343738 4.830026 -31.450450 55.681666 -21.606726 44.967404 21.111010 4.968142 32.756006 1.699191 55.149529 18.649562 -29.698294 -0.442556 -14.180557 7.313154 -0.000002 0.000003 -0.000000 5.673415 7.585007 36.844141 1.050479 3.824524 68.900237 0.000001 0.000000 -0.000001 -0.125711 1.886088 45.000766 -1.169000 3.204701 68.417650 0.000002 0.000001 0.000001 -5.311995 1.216651 58.508766 -0.745228 1.667573 48.011305 -0.000000 -0.000001 -0.000001 -7.756824 -9.376454 47.263990 -0.526029 1.541601 45.600535 0.000001 -0.000000 0.000002 -0.000001 -0.000002 0.000003 0.000003 -0.000002 0.000005 -0.000001 -0.000002 0.000004 -0.000003 -0.000003 -0.000000 -0.000003 -0.000003 0.000002 -0.000003 -0.000003 -0.000000 -0.000003 -0.000003 0.000003 -0.000000 -0.000001 0.000000 -0.000000 -0.000001 0.000000 -0.000000 -0.000001 0.000000 -0.000000 -0.000001 0.000000 -0.000000 -0.000001 0.000000 -0.000000 -0.000001 0.000000 -0.000000 -0.000001 0.000000 0.000001 0.000001 0.000000 -0.000000 0.000001 -0.000000 
-3.838923 78.633026 3.068034 10.047330 -54.044528 10.161391 -0.000001 -0.000002 0.000000 -64.334986 18.333534 47.674519 56.715715 -19.992420 4.074099 -2.503923 4.423309 -14.007224 -0.000000 0.000000 -0.000000 0.000000 -0.000002 0.000001 -33.633091 6.085743 -29.559119 58.657589 6.350440 -6.927606 -29.659967 -4.896612 29.667343 -0.000000 0.000003 0.000000 -0.000001 0.000001 -0.000003 11.124046 2.757999 -1.996951 6.408563 5.788708 -4.285503 -5.470567 6.747023 -2.854224 0.553969 1.828503 0.004806 0.553923 1.828537 0.004699 0.000001 0.000002 -0.000000 0.554109 1.828321 0.004840 0.553809 1.828503 0.004814 -0.000000 0.000003 -0.000001 0.000001 0.000002 -0.000000 -1.680929 -14.154111 -2.352874 -8.774231 1.650377 -44.932113 -22.530359 -26.999709 -16.467748 4.497318 -2.288687 6.678757 18.789975 -9.604240 12.342673 -0.550093 12.026259 -8.480252 0.000000 -0.000002 -0.000003 -0.348416 -4.866009 -4.542063 -0.174147 -0.156902 -9.125350 0.000001 -0.000003 0.000002 1.775584 4.397493 -10.459157 0.097258 -1.063978 -18.853801 -0.000001 -0.000000 -0.000000 2.498702 7.477368 -19.862544 -1.042446 -0.547721 -24.771945 0.000003 -0.000001 -0.000001 1.318468 5.993305 -27.751371 -1.134449 -0.192169 -22.231458 -0.000001 0.000002 -0.000001 -0.000001 -0.000000 -0.000000 -0.000001 -0.000000 -0.000000 -0.000002 0.000000 -0.000000 0.000001 0.000002 0.000001 0.000001 0.000002 -0.000002 0.000001 0.000002 0.000001 0.000000 0.000003 0.000001 -5.461410 25.266482 2.495339 3.915306 -29.781534 55.120006 -21.873969 44.541965 21.371848 7.589063 31.575671 -1.256841 55.149533 18.649563 -29.698294 -0.442559 -14.180555 7.313159 0.000002 0.000000 0.000003 5.673414 7.585011 36.844137 1.050479 3.824530 68.900244 0.000002 -0.000003 -0.000002 -0.125710 1.886087 45.000766 -1.169000 3.204702 68.417650 0.000002 -0.000000 -0.000002 -5.311992 1.216651 58.508766 -0.745229 1.667567 48.011309 0.000001 0.000002 -0.000001 -7.756818 -9.376456 47.263994 -0.526032 1.541603 45.600539 -0.000002 0.000005 -0.000003 0.000001 -0.000003 -0.000001 0.000000 -0.000001 0.000001 0.000001 -0.000003 -0.000001 -0.000001 -0.000001 -0.000000 -0.000000 -0.000001 0.000002 -0.000001 -0.000001 -0.000000 -0.000000 -0.000001 0.000003 0.000002 -0.000003 0.000001 0.000002 -0.000003 0.000001 0.000002 -0.000003 0.000001 0.000002 -0.000003 0.000001 0.000002 -0.000003 0.000001 0.000002 -0.000003 0.000001 0.000002 -0.000003 0.000001 -0.000000 0.000002 -0.000001 -0.000001 -0.000002 0.000000 
